<?xml version="1.0" ?><!DOCTYPE svg  PUBLIC '-//W3C//DTD SVG 1.1//EN'  'http://www.w3.org/Graphics/SVG/1.1/DTD/svg11.dtd'><svg enable-background="new 0 0 24 24" height="24px" id="Layer_1" version="1.1" viewBox="0 0 24 24" width="24px" xml:space="preserve" xmlns="http://www.w3.org/2000/svg" xmlns:xlink="http://www.w3.org/1999/xlink"><g><path d="M22.9,0H1.1C0.5,0,0,0.5,0,1.1v1.8C0,3.5,0.5,4,1.1,4h21.8C23.5,4,24,3.5,24,2.9V1.1C24,0.5,23.5,0,22.9,0z M23,3H1V1h22V3   z"/><path d="M22.9,10H1.1C0.5,10,0,10.5,0,11.1v1.8C0,13.5,0.5,14,1.1,14h21.8c0.6,0,1.1-0.5,1.1-1.1v-1.8C24,10.5,23.5,10,22.9,10z    M23,13H1v-2h22V13z"/><path d="M22.9,20H1.1C0.5,20,0,20.5,0,21.1v1.8C0,23.5,0.5,24,1.1,24h21.8c0.6,0,1.1-0.5,1.1-1.1v-1.8C24,20.5,23.5,20,22.9,20z    M23,23H1v-2h22V23z"/><path d="M22.9,5H1.1C0.5,5,0,5.5,0,6.1v1.8C0,8.5,0.5,9,1.1,9h21.8C23.5,9,24,8.5,24,7.9V6.1C24,5.5,23.5,5,22.9,5z M23,8H1V6h22V8   z"/><path d="M22.9,15H1.1C0.5,15,0,15.5,0,16.1v1.8C0,18.5,0.5,19,1.1,19h21.8c0.6,0,1.1-0.5,1.1-1.1v-1.8C24,15.5,23.5,15,22.9,15z    M23,18H1v-2h22V18z"/></g></svg>