<?xml version="1.0" ?><svg height="512" id="Layer_1" version="1.1" viewBox="0 0 512 512" width="512" xml:space="preserve" xmlns="http://www.w3.org/2000/svg" xmlns:cc="http://creativecommons.org/ns#" xmlns:dc="http://purl.org/dc/elements/1.1/" xmlns:inkscape="http://www.inkscape.org/namespaces/inkscape" xmlns:rdf="http://www.w3.org/1999/02/22-rdf-syntax-ns#" xmlns:sodipodi="http://sodipodi.sourceforge.net/DTD/sodipodi-0.dtd" xmlns:svg="http://www.w3.org/2000/svg"><defs id="defs12"/><g id="g3807" transform="translate(297.22034,0)"><rect height="512" id="rect2987" rx="64" ry="64" style="fill:#d42127;fill-opacity:1;fill-rule:nonzero;stroke:none" width="512" x="-297.22034" y="5.6843419e-014"/><path d="M 101.04525,396.4644 C 51.712761,396.26402 25.423371,371.9708 7.158761,329.17251 l -5.20855,-11.68263 -45.06114,-103.37564 c -14.91505,-36.60475 -51.99919,-61.32186 -93.810961,-61.32186 -56.58037,0 -102.49084,46.22184 -102.49084,103.22611 0,57.01044 45.91047,103.22458 102.49084,103.22458 39.467231,0 73.801431,-22.46506 90.922291,-55.4135 l 18.23532,42.29424 c -25.86395,31.75075 -65.17857,51.96836 -109.156061,51.96836 -77.93405,0 -141.11644,-63.5662 -141.11644,-142.07213 0,-78.46277 63.18239,-142.11221 141.11644,-142.11221 58.823181,0 106.305931,31.62434 130.434201,87.66829 1.8482,4.34688 25.50788,60.11644 46.17561,107.57146 12.80018,29.37844 23.69667,48.85464 59.07597,50.06313 34.773519,1.20233 58.635129,-20.10357 58.635129,-47.0342 0,-26.31559 -18.19062,-32.6386 -48.91322,-42.92931 -55.200769,-18.30932 -83.725259,-36.70803 -83.725259,-80.79034 0,-43.00023 29.06399,-71.66807 76.286239,-71.66807 30.76113,0 52.96259,13.77129 68.34162,41.24143 l -30.17846,15.52701 c -11.38051,-16.02799 -23.90169,-22.35409 -39.854129,-22.35409 -22.17064,0 -37.97202,15.52238 -37.97202,36.16391 0,29.2983 26.02272,33.72379 62.448669,45.75787 48.98874,16.06189 71.76209,34.41745 71.76209,80.25239 -0.005,48.12399 -41.01176,83.16264 -94.55085,83.0871 z" id="last.fm_2_" style="fill:#ffffff"/></g></svg>