<?xml version="1.0" ?><svg height="64px" id="Layer_1" style="enable-background:new 0 0 64 64;" version="1.1" viewBox="0 0 64 64" width="64px" xml:space="preserve" xmlns="http://www.w3.org/2000/svg" xmlns:xlink="http://www.w3.org/1999/xlink"><path d="M60.223,29.784c-2.365-1.614-7.935,1.92-7.935,1.92l-6.56-12.754c0,0,6.103-2.612,6.255-2.997  c0.153-0.384,1.83-2.843,1.22-6.377s-2.898-5.84-5.034-5.763c-2.137,0.077-7.936,2.843-7.936,2.843s-0.23-0.692-1.755-3.534  s-4.502-4.457-8.928-1.69s0.61,9.374,0.687,9.68c0.075,0.308-12.437,5.84-12.437,5.84s-1.907-5.147-4.12-6.99S7.043,9.73,5.67,12.65  s2.364,8.76,2.364,8.76c-2.594,1.382-6.714,3.15-7.02,7.53s3.286,7.22,4.659,7.374s6.41-1.69,6.714-1.69s4.73,10.527,4.73,10.527  s-2.06,0.845-3.433,1.998s-2.9,2.536-3.128,5.455c-0.23,2.92,1.144,7.76,4.578,8.222c3.433,0.46,7.172-1.998,7.172-1.998  s1.907,3.226,3.51,4.532c1.602,1.306,6.332,0.615,9.537-2.15s0-7.838,0-7.838s0.763-0.307,3.357-1.537  c2.593-1.23,6.713-2.69,6.713-2.69s1.45,2.23,2.823,3.074c1.373,0.846,4.807,0.923,7.706-1.613c2.9-2.536,1.297-6.3,1.297-6.3  s5.72-1.69,6.56-6.07C64.649,33.856,62.587,31.396,60.223,29.784L60.223,29.784z M61.978,36.316c-0.458,0.23-2.976-2.46-3.357-2.46  s-1.143,0.846-0.533,1.154s3.357,2.075,3.357,2.536s-0.38,1.614-0.84,1.537c-0.457-0.077-3.356-2.92-3.66-2.92  s-1.07,0.538-0.764,0.922c0.305,0.384,3.357,2.612,3.052,2.69c-0.305,0.076-1.297,0.46-1.297,0.46s-2.747-2.075-3.128-2.15  c-0.38-0.078-1.068,0.383-0.84,0.614c0.23,0.23,2.9,1.997,2.9,1.997l-1.83,0.768c0,0,1.143,2.382,0.838,2.69  c-0.305,0.306-2.823-2.152-3.433-2.152s-1.068,0.922-0.763,1.153s4.12,2.612,4.12,3.15s-0.46,1.153-0.46,1.153  s-3.356-2.767-3.66-2.767s-0.535,0.922-0.535,0.922s3.357,2.382,3.357,2.766c0,0.385-0.153,0.846-0.38,0.77s-3.51-2.767-3.74-2.767  c-0.228,0-0.838,0.692-0.762,0.922s3.357,2.536,3.128,2.612c-0.23,0.077-2.136,1-3.433,0s-3.128-4.61-3.433-4.764  s-1.755,0.307-1.755,0.307s-2.06-2.612-2.44-2.766s-1.07,0.384-0.84,0.615s2.365,2.227,2.136,2.535s-1.907,0.615-1.907,0.615  s-2.29-2.15-2.67-2.15s-0.763,0.767-0.763,0.767s2.29,1.844,2.06,1.92l-1.602,0.54c0,0-1.83-1.768-2.135-1.69  c-0.305,0.076-0.84,0.537-0.61,0.69s1.678,1.768,1.678,1.768s-4.73,2.075-4.654,2.612s2.593,4.15,2.135,5.763  c-0.458,1.614-2.365,4.764-5.264,3.765s-4.882-5.302-5.263-5.61c-0.38-0.306-4.96,3.843-8.545,1.845  c-3.586-1.998-3.433-5.455-2.136-7.453s5.646-2.997,5.646-3.61c0-0.616-5.264-13.063-5.798-13.14s-6.714,3.304-9.003,0.154  s-1.983-6.146,0.61-7.913c2.595-1.767,4.274-2.228,4.274-2.228s1.068-0.385,0.23-2c-0.84-1.613-4.35-7.298-0.382-9.22  s5.95,2.076,7.095,4.995s1.22,2.612,2.29,1.998c1.067-0.615,14.8-5.38,14.57-6.147c-0.228-0.768-4.73-6.07-3.127-8.606  c1.602-2.536,5.34-3.227,7.095-0.538s2.29,5.916,2.823,5.84s5.264-3.688,8.47-3.073c3.203,0.614,4.5,5.84,3.203,7.068  c-1.296,1.23-7.78,3.765-7.78,4.303c0,0.54,8.01,16.444,8.468,16.367c0.458-0.077,4.73-3.073,7.095-2.536  c2.36,0.535,3.353,5.145,2.895,5.376L61.978,36.316z M6.283,26.326c-0.84,0.078-1.373,0.693-1.373,2.076s0.84,2.46,0.84,2.46  c0.533,0.153,1.143-0.232,1.45-0.385s0-0.845-0.382-1.614s0.38-1.537,0.61-1.844C7.656,26.709,7.122,26.249,6.283,26.326z   M11.318,12.496c-0.534-0.23-2.06,0.307-2.365,1.46s0.23,2.766,0.23,2.766c0.686,0.23,0.915,0,1.143-0.23  c0.23-0.232-0.076-0.385-0.23-1.077c-0.154-0.692,1.527-1.69,1.527-1.69S11.853,12.727,11.318,12.496L11.318,12.496z M22.832,29.246  c-0.096,0.484,4.716,11.243,5.197,11.824c0.48,0.58,13.28-4.653,13.762-5.622c0.48-0.97-5.1-11.825-5.39-12.116  c-0.29-0.29-13.57,5.913-13.57,5.913L22.832,29.246z M40.158,35.086c-0.38,0.768-10.53,4.918-10.91,4.457  c-0.38-0.46-4.196-8.99-4.12-9.374c0,0,10.53-4.92,10.758-4.688C36.114,25.711,40.539,34.317,40.158,35.086L40.158,35.086z"/></svg>